<svg width="25" height="25" viewBox="0 0 25 25" fill="none" xmlns="http://www.w3.org/2000/svg">
<g clip-path="url(#clip0_25_20705)">
<path fill-rule="evenodd" clip-rule="evenodd" d="M17.7931 8.79301C17.8853 8.69749 17.9957 8.62131 18.1177 8.5689C18.2397 8.51649 18.3709 8.48891 18.5037 8.48775C18.6365 8.4866 18.7681 8.5119 18.891 8.56218C19.0139 8.61246 19.1256 8.68672 19.2195 8.78061C19.3134 8.8745 19.3876 8.98615 19.4379 9.10905C19.4882 9.23195 19.5135 9.36363 19.5123 9.49641C19.5112 9.62919 19.4836 9.76041 19.4312 9.88241C19.3788 10.0044 19.3026 10.1148 19.2071 10.207L13.2071 16.207C13.0248 16.3893 12.7793 16.4941 12.5216 16.4997C12.2639 16.5053 12.014 16.4112 11.8241 16.237L5.82407 10.737C5.62861 10.5577 5.51237 10.3081 5.50093 10.0431C5.49527 9.91193 5.5155 9.78089 5.56048 9.6575C5.60546 9.53411 5.6743 9.42079 5.76307 9.32401C5.85185 9.22722 5.95881 9.14887 6.07787 9.09342C6.19692 9.03798 6.32573 9.00653 6.45694 9.00086C6.72193 8.98942 6.98061 9.08372 7.17607 9.263L12.4701 14.116L17.7931 8.79301Z" fill="#848895"/>
</g>
<defs>
<clipPath id="clip0_25_20705">
<rect width="24" height="24" fill="white" transform="translate(0.5 0.5)"/>
</clipPath>
</defs>
</svg>
