<svg width="30" height="30" viewBox="0 0 30 30" fill="none" xmlns="http://www.w3.org/2000/svg">
<circle cx="15" cy="15" r="15" fill="black"/>
<g clip-path="url(#clip0_31_24077)">
<path d="M22.4228 18.9899L19.9466 21.6057C19.8927 21.6625 19.8276 21.7079 19.7552 21.7388C19.6829 21.7698 19.6048 21.7857 19.5259 21.7857H7.78747C7.73146 21.7857 7.67667 21.7696 7.62983 21.7393C7.58299 21.7091 7.54615 21.666 7.52382 21.6154C7.5015 21.5648 7.49467 21.5089 7.50416 21.4545C7.51366 21.4001 7.53908 21.3497 7.57729 21.3094L10.0554 18.6936C10.109 18.6369 10.174 18.5917 10.2461 18.5607C10.3182 18.5298 10.3961 18.5137 10.4748 18.5136H22.2125C22.2685 18.5136 22.3233 18.5297 22.3702 18.56C22.417 18.5902 22.4538 18.6333 22.4762 18.6839C22.4985 18.7345 22.5053 18.7904 22.4958 18.8448C22.4863 18.8991 22.4609 18.9496 22.4228 18.9899ZM19.9466 13.7225C19.8927 13.6656 19.8276 13.6203 19.7552 13.5894C19.6829 13.5584 19.6048 13.5425 19.5259 13.5425H7.78747C7.73146 13.5425 7.67667 13.5586 7.62983 13.5889C7.58299 13.6191 7.54615 13.6622 7.52382 13.7128C7.5015 13.7634 7.49467 13.8193 7.50416 13.8737C7.51366 13.928 7.53908 13.9785 7.57729 14.0189L10.0554 16.6346C10.109 16.6913 10.174 16.7365 10.2461 16.7675C10.3182 16.7984 10.3961 16.8145 10.4748 16.8146H22.2125C22.2685 16.8146 22.3233 16.7985 22.3702 16.7682C22.417 16.738 22.4538 16.6949 22.4762 16.6443C22.4985 16.5937 22.5053 16.5378 22.4958 16.4834C22.4863 16.4291 22.4609 16.3786 22.4228 16.3383L19.9466 13.7225ZM7.78747 11.8435H19.5259C19.6048 11.8436 19.6829 11.8276 19.7552 11.7966C19.8276 11.7657 19.8927 11.7204 19.9466 11.6636L22.4228 9.04775C22.4609 9.00742 22.4863 8.95696 22.4958 8.90259C22.5053 8.84822 22.4985 8.7923 22.4762 8.74171C22.4538 8.69111 22.417 8.64804 22.3702 8.61778C22.3233 8.58753 22.2685 8.57141 22.2125 8.57141H10.4748C10.3961 8.57154 10.3182 8.58758 10.2461 8.61854C10.174 8.6495 10.109 8.69471 10.0554 8.75138L7.57793 11.3672C7.53975 11.4075 7.51435 11.4579 7.50483 11.5122C7.49531 11.5665 7.50209 11.6224 7.52434 11.6729C7.54658 11.7235 7.58333 11.7666 7.63007 11.7969C7.67681 11.8272 7.73151 11.8434 7.78747 11.8435Z" fill="url(#paint0_linear_31_24077)"/>
</g>
<defs>
<linearGradient id="paint0_linear_31_24077" x1="8.76618" y1="22.1006" x2="20.868" y2="8.25059" gradientUnits="userSpaceOnUse">
<stop offset="0.08" stop-color="#9945FF"/>
<stop offset="0.3" stop-color="#8752F3"/>
<stop offset="0.5" stop-color="#5497D5"/>
<stop offset="0.6" stop-color="#43B4CA"/>
<stop offset="0.72" stop-color="#28E0B9"/>
<stop offset="0.97" stop-color="#19FB9B"/>
</linearGradient>
<clipPath id="clip0_31_24077">
<rect width="15" height="13.2143" fill="white" transform="translate(7.5 8.57141)"/>
</clipPath>
</defs>
</svg>
