<svg width="130" height="130" viewBox="0 0 130 130" fill="none" xmlns="http://www.w3.org/2000/svg">
<g clip-path="url(#clip0_31_24080)">
<g clip-path="url(#clip1_31_24080)">
<path d="M130 0H0V130H130V0Z" fill="white"/>
<path d="M49.3102 11.2069H49.3101L47.0688 8.96558L44.8274 11.2069H44.8274V11.207H44.8274L47.0688 13.4483L49.3101 11.207H49.3102H49.3101L49.3102 11.2069Z" fill="black"/>
<path d="M62.7585 10.7867V13.4483H58.2758V10.7867L60.5171 8.96558L62.7585 10.7867Z" fill="black"/>
<path d="M76.2068 10.7867V13.4483H71.724V10.7867L73.9654 8.96558L76.2068 10.7867Z" fill="black"/>
<path d="M85.1722 10.7867V13.4483H80.6895V10.7867L82.9308 8.96558L85.1722 10.7867Z" fill="black"/>
<path d="M55.6141 13.4484H58.2757V17.9311H55.6141L53.793 15.6897L55.6141 13.4484Z" fill="black"/>
<path d="M62.7585 13.4484H58.2758V17.9311H62.7585V13.4484Z" fill="black"/>
<path d="M67.2413 13.4484H62.7585V17.9311H67.2413V13.4484Z" fill="black"/>
<path d="M71.724 13.4484H67.2412V17.9311H71.724V13.4484Z" fill="black"/>
<path d="M76.2068 13.4484H71.724V17.9311H76.2068V13.4484Z" fill="black"/>
<path d="M85.1722 16.11V13.4484H80.6895V16.11L82.9308 17.9311L85.1722 16.11Z" fill="black"/>
<path d="M46.6485 17.9311H49.3102V22.4138H46.6485L44.8274 20.1725L46.6485 17.9311Z" fill="black"/>
<path d="M53.7931 19.472L52.2521 17.9311H49.3103V22.4138H53.7931V19.472Z" fill="black"/>
<path d="M71.724 17.9311H67.2412V22.4138H71.724V17.9311Z" fill="black"/>
<path d="M76.2068 17.9311H71.724V22.4138H76.2068V17.9311Z" fill="black"/>
<path d="M78.8684 17.9311H76.2068V22.4138H78.8684L80.6895 20.1725L78.8684 17.9311Z" fill="black"/>
<path d="M53.7931 25.0755V22.4138H49.3103V25.0755L51.5517 26.8966L53.7931 25.0755Z" fill="black"/>
<path d="M71.724 22.4138H67.2412V26.8966H71.724V22.4138Z" fill="black"/>
<path d="M76.2068 22.4138H71.724V26.8966H76.2068V22.4138Z" fill="black"/>
<path d="M58.2757 28.7177V31.3793H53.793V28.7177L56.0343 26.8965L58.2757 28.7177Z" fill="black"/>
<path d="M71.724 26.8965H67.2412V31.3793H71.724V26.8965Z" fill="black"/>
<path d="M76.2068 29.8384V26.8965H71.724V31.3793H74.6658" fill="black"/>
<path d="M44.8274 32.9203V35.8621H49.3102V32.9203V31.3793H46.3683" fill="black"/>
<path d="M53.7931 31.3793H49.3103V35.8621H53.7931V31.3793Z" fill="black"/>
<path d="M58.2757 31.3793H53.793V35.8621H58.2757V31.3793Z" fill="black"/>
<path d="M62.7585 32.9203V35.8621H67.2413V32.9203V31.3793H64.2995" fill="black"/>
<path d="M71.724 34.3211V31.3793H67.2412V35.8621H70.183" fill="black"/>
<path d="M49.3102 38.5239V35.8623H44.8274V38.5239L47.0688 40.3451L49.3102 38.5239Z" fill="black"/>
<path d="M58.2757 38.5239V35.8623H53.793V38.5239L56.0343 40.3451L58.2757 38.5239Z" fill="black"/>
<path d="M67.2413 38.5239V35.8623H62.7585V38.5239L64.9999 40.3451L67.2413 38.5239Z" fill="black"/>
<path d="M76.2068 37.6834V40.3451H71.724V37.6834L73.9654 35.8623L76.2068 37.6834Z" fill="black"/>
<path d="M85.1722 37.6834V40.3451H80.6895V37.6834L82.9308 35.8623L85.1722 37.6834Z" fill="black"/>
<path d="M76.2068 43.0067V40.345H71.724V43.0067L73.9654 44.8278L76.2068 43.0067Z" fill="black"/>
<path d="M85.1722 40.345H80.6895V44.8278H85.1722V40.345Z" fill="black"/>
<path d="M13.4481 46.6489V49.3105H8.96533V46.6489L11.2067 44.8278L13.4481 46.6489Z" fill="black"/>
<path d="M22.4138 46.6489V49.3105H17.931V46.6489L20.1724 44.8278L22.4138 46.6489Z" fill="black"/>
<path d="M37.6831 44.8278H40.3447V49.3105H37.6831L35.8619 47.0691L37.6831 44.8278Z" fill="black"/>
<path d="M44.8275 46.3687L43.2865 44.8278H40.3447V49.3105H44.8275V46.3687Z" fill="black"/>
<path d="M51.1314 44.8278H53.7931V49.3105H51.1314L49.3103 47.0691L51.1314 44.8278Z" fill="black"/>
<path d="M58.2757 44.8278H53.793V49.3105H58.2757V44.8278Z" fill="black"/>
<path d="M62.7585 46.3687L61.2176 44.8278H58.2758V49.3105H62.7585V46.3687Z" fill="black"/>
<path d="M85.1722 44.8278H80.6895V49.3105H85.1722V44.8278Z" fill="black"/>
<path d="M98.6206 46.6489V49.3105H94.1378V46.6489L96.3792 44.8278L98.6206 46.6489Z" fill="black"/>
<path d="M112.069 47.0691H112.069L109.827 44.8278L107.586 47.0691H107.586V47.0691H107.586L109.827 49.3105L112.069 47.0691H112.069H112.069L112.069 47.0691Z" fill="black"/>
<path d="M121.034 46.6489V49.3105H116.552V46.6489L118.793 44.8278L121.034 46.6489Z" fill="black"/>
<path d="M13.4481 49.3105H8.96533V53.7933H13.4481V49.3105Z" fill="black"/>
<path d="M17.9309 49.3105H13.4481V53.7933H17.9309V49.3105Z" fill="black"/>
<path d="M22.4138 52.2524V49.3105H17.931V53.7933H20.8728" fill="black"/>
<path d="M31.3791 51.5519H31.3791L29.1377 49.3105L26.8964 51.5519H26.8964V51.5519H26.8964L29.1377 53.7933L31.3791 51.5519H31.3791H31.3791L31.3791 51.5519Z" fill="black"/>
<path d="M44.8275 49.3105H40.3447V53.7933H44.8275V49.3105Z" fill="black"/>
<path d="M47.489 49.3105H44.8274V53.7933H47.489L49.3102 51.5519L47.489 49.3105Z" fill="black"/>
<path d="M62.7585 49.3105H58.2758V53.7933H62.7585V49.3105Z" fill="black"/>
<path d="M67.2413 49.3105H62.7585V53.7933H67.2413V49.3105Z" fill="black"/>
<path d="M69.9028 49.3105H67.2412V53.7933H69.9028L71.724 51.5519L69.9028 49.3105Z" fill="black"/>
<path d="M76.2068 50.8515V53.7933H80.6895V50.8515V49.3105H77.7477" fill="black"/>
<path d="M85.1722 49.3105H80.6895V53.7933H85.1722V49.3105Z" fill="black"/>
<path d="M89.6551 49.3105H85.1724V53.7933H89.6551V49.3105Z" fill="black"/>
<path d="M94.1378 49.3105H89.655V53.7933H94.1378V49.3105Z" fill="black"/>
<path d="M98.6206 52.2524V49.3105H94.1378V53.7933H97.0796" fill="black"/>
<path d="M107.586 51.1317V53.7933H103.103V51.1317L105.345 49.3105L107.586 51.1317Z" fill="black"/>
<path d="M113.89 49.3105H116.552V53.7933H113.89L112.069 51.5519L113.89 49.3105Z" fill="black"/>
<path d="M121.034 49.3105H116.552V53.7933H121.034V49.3105Z" fill="black"/>
<path d="M10.5063 58.276H13.4481V53.7933H8.96533V56.7351" fill="black"/>
<path d="M17.9309 53.7933H13.4481V58.276H17.9309V53.7933Z" fill="black"/>
<path d="M31.3792 55.3342V58.276H35.8619V55.3342V53.7933H32.9201" fill="black"/>
<path d="M40.3447 53.7933H35.8619V58.276H40.3447V53.7933Z" fill="black"/>
<path d="M44.8275 53.7933H40.3447V58.276H44.8275V53.7933Z" fill="black"/>
<path d="M49.3103 55.3342V58.276H53.7931V55.3342V53.7933H50.8513" fill="black"/>
<path d="M58.2757 53.7933H53.793V58.276H58.2757V53.7933Z" fill="black"/>
<path d="M62.7585 53.7933H58.2758V58.276H62.7585V53.7933Z" fill="black"/>
<path d="M67.2413 53.7933H62.7585V58.276H67.2413V53.7933Z" fill="black"/>
<path d="M80.6895 53.7933H76.2068V58.276H80.6895V53.7933Z" fill="black"/>
<path d="M94.1378 53.7933H89.655V58.276H94.1378V53.7933Z" fill="black"/>
<path d="M107.586 53.7933H103.103V58.276H107.586V53.7933Z" fill="black"/>
<path d="M110.248 53.7933H107.586V58.276H110.248L112.069 56.0347L110.248 53.7933Z" fill="black"/>
<path d="M121.034 56.4549V53.7933H116.552V56.4549L118.793 58.276L121.034 56.4549Z" fill="black"/>
<path d="M17.9309 60.9376V58.276H13.4481V60.9376L15.6895 62.7588L17.9309 60.9376Z" fill="black"/>
<path d="M24.2348 58.276H26.8965V62.7588H24.2348L22.4137 60.5174L24.2348 58.276Z" fill="black"/>
<path d="M31.3792 58.276H26.8965V62.7588H31.3792V58.276Z" fill="black"/>
<path d="M35.8619 61.2178V58.276H31.3792V62.7588H34.321" fill="black"/>
<path d="M44.8275 58.276H40.3447V62.7588H44.8275V58.276Z" fill="black"/>
<path d="M49.3102 58.276H44.8274V62.7588H49.3102V58.276Z" fill="black"/>
<path d="M53.7931 58.276H49.3103V62.7588H53.7931V58.276Z" fill="black"/>
<path d="M58.2757 61.2178V58.276H53.793V62.7588H56.7348" fill="black"/>
<path d="M67.2413 58.276H62.7585V62.7588H67.2413V58.276Z" fill="black"/>
<path d="M73.5451 58.276H76.2068V62.7588H73.5451L71.724 60.5174L73.5451 58.276Z" fill="black"/>
<path d="M80.6895 58.276H76.2068V62.7588H80.6895V58.276Z" fill="black"/>
<path d="M85.1722 58.276H80.6895V62.7588H85.1722V58.276Z" fill="black"/>
<path d="M89.6551 58.276H85.1724V62.7588H89.6551V58.276Z" fill="black"/>
<path d="M94.1378 58.276H89.655V62.7588H94.1378V58.276Z" fill="black"/>
<path d="M96.7995 58.276H94.1378V62.7588H96.7995L98.6206 60.5174L96.7995 58.276Z" fill="black"/>
<path d="M107.586 60.9376V58.276H103.103V60.9376L105.345 62.7588L107.586 60.9376Z" fill="black"/>
<path d="M13.4481 65.0001H13.448L11.2067 62.7587L8.96538 65.0001H8.96533V65.0001H8.96538L11.2067 67.2414L13.448 65.0001H13.4481H13.448L13.4481 65.0001Z" fill="black"/>
<path d="M31.3792 62.7587H26.8965V67.2415H31.3792V62.7587Z" fill="black"/>
<path d="M37.6831 62.7587H40.3447V67.2415H37.6831L35.8619 65.0001L37.6831 62.7587Z" fill="black"/>
<path d="M44.8275 65.7005V62.7587H40.3447V67.2415H43.2865" fill="black"/>
<path d="M67.2413 62.7587H62.7585V67.2415H67.2413V62.7587Z" fill="black"/>
<path d="M80.6895 62.7587H76.2068V67.2415H80.6895V62.7587Z" fill="black"/>
<path d="M85.1722 62.7587H80.6895V67.2415H85.1722V62.7587Z" fill="black"/>
<path d="M89.6551 62.7587H85.1724V67.2415H89.6551V62.7587Z" fill="black"/>
<path d="M94.1378 62.7587H89.655V67.2415H94.1378V62.7587Z" fill="black"/>
<path d="M121.034 64.5798V67.2415H116.552V64.5798L118.793 62.7587L121.034 64.5798Z" fill="black"/>
<path d="M17.931 68.7825V71.7243H22.4138V68.7825V67.2415H19.472" fill="black"/>
<path d="M26.8965 67.2415H22.4137V71.7243H26.8965V67.2415Z" fill="black"/>
<path d="M31.3792 67.2415H26.8965V71.7243H31.3792V67.2415Z" fill="black"/>
<path d="M35.8619 68.7825L34.321 67.2415H31.3792V71.7243H35.8619V68.7825Z" fill="black"/>
<path d="M53.7931 69.0626V71.7243H49.3103V69.0626L51.5517 67.2415L53.7931 69.0626Z" fill="black"/>
<path d="M67.2413 67.2415H62.7585V71.7243H67.2413V67.2415Z" fill="black"/>
<path d="M71.724 68.7825L70.183 67.2415H67.2412V71.7243H71.724V68.7825Z" fill="black"/>
<path d="M80.6895 67.2415H76.2068V71.7243H80.6895V67.2415Z" fill="black"/>
<path d="M85.1722 70.1833V67.2415H80.6895V71.7243H83.6313" fill="black"/>
<path d="M91.196 71.7243H94.1378V67.2415H89.655V70.1833" fill="black"/>
<path d="M96.7995 67.2415H94.1378V71.7243H96.7995L98.6206 69.4829L96.7995 67.2415Z" fill="black"/>
<path d="M113.89 67.2415H116.552V71.7243H113.89L112.069 69.4829L113.89 67.2415Z" fill="black"/>
<path d="M121.034 67.2415H116.552V71.7243H121.034V67.2415Z" fill="black"/>
<path d="M10.7865 71.7242H13.4481V76.207H10.7865L8.96533 73.9656L10.7865 71.7242Z" fill="black"/>
<path d="M17.9309 71.7242H13.4481V76.207H17.9309V71.7242Z" fill="black"/>
<path d="M22.4138 74.6661V71.7242H17.931V76.207H20.8728" fill="black"/>
<path d="M35.8619 71.7242H31.3792V76.207H35.8619V71.7242Z" fill="black"/>
<path d="M40.3447 71.7242H35.8619V76.207H40.3447V71.7242Z" fill="black"/>
<path d="M43.0064 71.7242H40.3447V76.207H43.0064L44.8275 73.9656L43.0064 71.7242Z" fill="black"/>
<path d="M50.8513 76.207H53.7931V71.7242H49.3103V74.6661" fill="black"/>
<path d="M58.2757 73.2652L56.7348 71.7242H53.793V76.207H58.2757V73.2652Z" fill="black"/>
<path d="M67.2413 71.7242H62.7585V76.207H67.2413V71.7242Z" fill="black"/>
<path d="M71.724 74.6661V71.7242H67.2412V76.207H70.183" fill="black"/>
<path d="M80.6895 71.7242H76.2068V76.207H80.6895V71.7242Z" fill="black"/>
<path d="M104.924 71.7242H107.586V76.207H104.924L103.103 73.9656L104.924 71.7242Z" fill="black"/>
<path d="M110.248 71.7242H107.586V76.207H110.248L112.069 73.9656L110.248 71.7242Z" fill="black"/>
<path d="M121.034 74.3859V71.7242H116.552V74.3859L118.793 76.207L121.034 74.3859Z" fill="black"/>
<path d="M26.8965 78.0281V80.6897H22.4137V78.0281L24.6551 76.207L26.8965 78.0281Z" fill="black"/>
<path d="M35.8619 76.207H31.3792V80.6897H35.8619V76.207Z" fill="black"/>
<path d="M55.3339 80.6897H58.2757V76.207H53.793V79.1488" fill="black"/>
<path d="M62.7585 76.207H58.2758V80.6897H62.7585V76.207Z" fill="black"/>
<path d="M67.2413 79.1488V76.207H62.7585V80.6897H65.7004" fill="black"/>
<path d="M71.724 77.7479V80.6897H76.2068V77.7479V76.207H73.2649" fill="black"/>
<path d="M80.6895 76.207H76.2068V80.6897H80.6895V76.207Z" fill="black"/>
<path d="M85.1722 77.7479L83.6313 76.207H80.6895V80.6897H85.1722V77.7479Z" fill="black"/>
<path d="M89.655 77.7479V80.6897H94.1378V77.7479V76.207H91.196" fill="black"/>
<path d="M98.6206 77.7479L97.0796 76.207H94.1378V80.6897H98.6206V77.7479Z" fill="black"/>
<path d="M10.7865 80.6897H13.4481V85.1725H10.7865L8.96533 82.9311L10.7865 80.6897Z" fill="black"/>
<path d="M17.9309 80.6897H13.4481V85.1725H17.9309V80.6897Z" fill="black"/>
<path d="M22.4138 80.6897H17.931V85.1725H22.4138V80.6897Z" fill="black"/>
<path d="M26.8965 83.6315V80.6897H22.4137V85.1725H25.3555" fill="black"/>
<path d="M32.9201 85.1725H35.8619V80.6897H31.3792V83.6315" fill="black"/>
<path d="M38.5236 80.6897H35.8619V85.1725H38.5236L40.3447 82.9311L38.5236 80.6897Z" fill="black"/>
<path d="M44.8274 82.2306V85.1725H49.3102V82.2306V80.6897H46.3683" fill="black"/>
<path d="M53.7931 82.2306L52.2521 80.6897H49.3103V85.1725H53.7931V82.2306Z" fill="black"/>
<path d="M67.2412 82.2306V85.1725H71.724V82.2306V80.6897H68.7822" fill="black"/>
<path d="M76.2068 83.6315V80.6897H71.724V85.1725H74.6658" fill="black"/>
<path d="M85.1722 80.6897H80.6895V85.1725H85.1722V80.6897Z" fill="black"/>
<path d="M89.6551 80.6897H85.1724V85.1725H89.6551V80.6897Z" fill="black"/>
<path d="M94.1378 80.6897H89.655V85.1725H94.1378V80.6897Z" fill="black"/>
<path d="M98.6206 80.6897H94.1378V85.1725H98.6206V80.6897Z" fill="black"/>
<path d="M103.103 82.2306L101.562 80.6897H98.6206V85.1725H103.103V82.2306Z" fill="black"/>
<path d="M116.552 82.931H116.552L114.31 80.6897L112.069 82.931H112.069V82.9311H112.069L114.31 85.1724L116.552 82.9311H116.552H116.552L116.552 82.931Z" fill="black"/>
<path d="M49.3102 85.1725H44.8274V89.6552H49.3102V85.1725Z" fill="black"/>
<path d="M53.7931 85.1725H49.3103V89.6552H53.7931V85.1725Z" fill="black"/>
<path d="M71.724 87.8341V85.1725H67.2412V87.8341L69.4826 89.6552L71.724 87.8341Z" fill="black"/>
<path d="M85.1722 85.1725H80.6895V89.6552H85.1722V85.1725Z" fill="black"/>
<path d="M103.103 85.1725H98.6206V89.6552H103.103V85.1725Z" fill="black"/>
<path d="M112.069 87.4138H112.069L109.827 85.1725L107.586 87.4138H107.586V87.4139H107.586L109.827 89.6552L112.069 87.4139H112.069H112.069L112.069 87.4138Z" fill="black"/>
<path d="M121.034 86.9936V89.6552H116.552V86.9936L118.793 85.1725L121.034 86.9936Z" fill="black"/>
<path d="M46.3683 94.138H49.3102V89.6552H44.8274V92.597" fill="black"/>
<path d="M53.7931 89.6552H49.3103V94.138H53.7931V89.6552Z" fill="black"/>
<path d="M58.2757 89.6552H53.793V94.138H58.2757V89.6552Z" fill="black"/>
<path d="M60.9374 89.6552H58.2758V94.138H60.9374L62.7585 91.8966L60.9374 89.6552Z" fill="black"/>
<path d="M85.1722 89.6552H80.6895V94.138H85.1722V89.6552Z" fill="black"/>
<path d="M94.1377 91.8965H94.1376L91.8963 89.6552L89.655 91.8965H89.6549V91.8966H89.655L91.8963 94.1379L94.1376 91.8966H94.1377H94.1376L94.1377 91.8965Z" fill="black"/>
<path d="M103.103 89.6552H98.6206V94.138H103.103V89.6552Z" fill="black"/>
<path d="M105.765 89.6552H103.103V94.138H105.765L107.586 91.8966L105.765 89.6552Z" fill="black"/>
<path d="M121.034 92.3169V89.6552H116.552V92.3169L118.793 94.138L121.034 92.3169Z" fill="black"/>
<path d="M58.2757 94.1379H53.793V98.6207H58.2757V94.1379Z" fill="black"/>
<path d="M71.724 95.9591V98.6207H67.2412V95.9591L69.4826 94.1379L71.724 95.9591Z" fill="black"/>
<path d="M76.2068 95.6789V98.6207H80.6895V95.6789V94.1379H77.7477" fill="black"/>
<path d="M85.1722 94.1379H80.6895V98.6207H85.1722V94.1379Z" fill="black"/>
<path d="M103.103 94.1379H98.6206V98.6207H103.103V94.1379Z" fill="black"/>
<path d="M116.552 96.3793H116.552L114.31 94.1379L112.069 96.3793H112.069V96.3793H112.069L114.31 98.6207L116.552 96.3793H116.552H116.552L116.552 96.3793Z" fill="black"/>
<path d="M55.3339 103.104H58.2757V98.6209H53.793V101.563" fill="black"/>
<path d="M62.7585 98.6209H58.2758V103.104H62.7585V98.6209Z" fill="black"/>
<path d="M67.2413 98.6209H62.7585V103.104H67.2413V98.6209Z" fill="black"/>
<path d="M71.724 101.563V98.6209H67.2412V103.104H70.183" fill="black"/>
<path d="M80.6895 98.6209H76.2068V103.104H80.6895V98.6209Z" fill="black"/>
<path d="M85.1722 98.6209H80.6895V103.104H85.1722V98.6209Z" fill="black"/>
<path d="M89.6551 98.6209H85.1724V103.104H89.6551V98.6209Z" fill="black"/>
<path d="M94.1378 98.6209H89.655V103.104H94.1378V98.6209Z" fill="black"/>
<path d="M98.6206 98.6209H94.1378V103.104H98.6206V98.6209Z" fill="black"/>
<path d="M103.103 98.6209H98.6206V103.104H103.103V98.6209Z" fill="black"/>
<path d="M107.586 100.162L106.045 98.6209H103.103V103.104H107.586V100.162Z" fill="black"/>
<path d="M121.034 100.862H121.034L118.793 98.6209L116.552 100.862H116.552V100.862H116.552L118.793 103.104L121.034 100.862H121.034H121.034L121.034 100.862Z" fill="black"/>
<path d="M67.2413 103.104H62.7585V107.586H67.2413V103.104Z" fill="black"/>
<path d="M77.7477 107.586H80.6895V103.104H76.2068V106.046" fill="black"/>
<path d="M85.1722 103.104H80.6895V107.586H85.1722V103.104Z" fill="black"/>
<path d="M89.6551 103.104H85.1724V107.586H89.6551V103.104Z" fill="black"/>
<path d="M95.6788 107.586H98.6206V103.104H94.1378V106.046" fill="black"/>
<path d="M103.103 103.104H98.6206V107.586H103.103V103.104Z" fill="black"/>
<path d="M107.586 103.104H103.103V107.586H107.586V103.104Z" fill="black"/>
<path d="M112.069 103.104H107.586V107.586H112.069V103.104Z" fill="black"/>
<path d="M116.552 104.645L115.011 103.104H112.069V107.586H116.552V104.645Z" fill="black"/>
<path d="M46.6485 107.586H49.3102V112.069H46.6485L44.8274 109.828L46.6485 107.586Z" fill="black"/>
<path d="M53.7931 109.127L52.2521 107.586H49.3103V112.069H53.7931V109.127Z" fill="black"/>
<path d="M67.2413 107.586H62.7585V112.069H67.2413V107.586Z" fill="black"/>
<path d="M71.724 107.586H67.2412V112.069H71.724V107.586Z" fill="black"/>
<path d="M76.2068 109.127L74.6658 107.586H71.724V112.069H76.2068V109.127Z" fill="black"/>
<path d="M89.6551 107.586H85.1724V112.069H89.6551V107.586Z" fill="black"/>
<path d="M103.103 107.586H98.6206V112.069H103.103V107.586Z" fill="black"/>
<path d="M113.61 112.069H116.552V107.586H112.069V110.528" fill="black"/>
<path d="M119.213 107.586H116.552V112.069H119.213L121.034 109.828L119.213 107.586Z" fill="black"/>
<path d="M53.7931 112.069H49.3103V116.552H53.7931V112.069Z" fill="black"/>
<path d="M58.2757 112.069H53.793V116.552H58.2757V112.069Z" fill="black"/>
<path d="M62.7585 112.069H58.2758V116.552H62.7585V112.069Z" fill="black"/>
<path d="M67.2413 115.011V112.069H62.7585V116.552H65.7004" fill="black"/>
<path d="M76.2068 112.069H71.724V116.552H76.2068V112.069Z" fill="black"/>
<path d="M80.6895 113.61V116.552H85.1722V113.61V112.069H82.2304" fill="black"/>
<path d="M89.6551 115.011V112.069H85.1724V116.552H88.1142" fill="black"/>
<path d="M95.9589 112.069H98.6206V116.552H95.9589L94.1378 114.311L95.9589 112.069Z" fill="black"/>
<path d="M103.103 115.011V112.069H98.6206V116.552H101.562" fill="black"/>
<path d="M46.6485 116.552H49.3102V121.035H46.6485L44.8274 118.793L46.6485 116.552Z" fill="black"/>
<path d="M53.7931 116.552H49.3103V121.035H53.7931V116.552Z" fill="black"/>
<path d="M58.2757 119.494V116.552H53.793V121.035H56.7348" fill="black"/>
<path d="M69.0623 116.552H71.724V121.035H69.0623L67.2412 118.793L69.0623 116.552Z" fill="black"/>
<path d="M76.2068 119.494V116.552H71.724V121.035H74.6658" fill="black"/>
<path d="M85.1722 119.214V116.552H80.6895V119.214L82.9308 121.035L85.1722 119.214Z" fill="black"/>
<path d="M107.586 118.793H107.586L105.345 116.552L103.103 118.793H103.103V118.793H103.103L105.345 121.035L107.586 118.793H107.586H107.586L107.586 118.793Z" fill="black"/>
<path d="M121.034 118.793H121.034L118.793 116.552L116.552 118.793H116.552V118.793H116.552L118.793 121.035L121.034 118.793H121.034H121.034L121.034 118.793Z" fill="black"/>
<path d="M29.754 40.3448H19.5651C13.7223 40.3448 8.97149 35.5375 8.97149 29.6319L8.96521 8.96548H29.754C35.5937 8.96548 40.3445 13.7728 40.3445 19.6784V29.6319V40.3448H29.754ZM35.6376 19.6784C35.6376 16.3666 32.9983 13.6724 29.754 13.6724H13.6734L13.6784 29.6303C13.6784 32.9437 16.3193 35.6379 19.5651 35.6379H35.6376V19.6784Z" fill="black"/>
<path d="M110.444 8.96558H100.255C94.4121 8.96558 89.6613 13.7729 89.6613 19.6785L89.655 40.3449H110.444C116.284 40.3449 121.034 35.5376 121.034 29.632V19.6785V8.96558H110.444ZM116.327 29.632C116.327 32.9438 113.688 35.638 110.444 35.638H94.3632L94.3682 19.68C94.3682 16.3667 97.0091 13.6725 100.255 13.6725H116.327V29.632Z" fill="black"/>
<path d="M29.7541 89.6552H19.5653C13.7224 89.6552 8.97161 94.4625 8.97161 100.368L8.96533 121.035H29.7541C35.5938 121.035 40.3446 116.227 40.3446 110.322V100.368V89.6552H29.7541ZM35.6377 110.322C35.6377 113.633 32.9984 116.328 29.7541 116.328H13.6735L13.6785 100.37C13.6785 97.0563 16.3194 94.3621 19.5653 94.3621H35.6377V110.322Z" fill="black"/>
<path d="M31.3874 17.933V31.3792H17.9391L17.9429 21.6468C17.9427 19.5982 19.581 17.9309 21.5923 17.9309H27.715C28.3447 17.9309 29.2627 17.9309 30.0242 17.933C30.7839 17.933 31.3874 17.933 31.3874 17.933Z" fill="black"/>
<path d="M98.6124 17.933V31.3792H112.061L112.057 21.6468C112.057 19.5982 110.419 17.9309 108.407 17.9309H102.285C101.655 17.9309 100.737 17.9309 99.9755 17.933C99.2158 17.933 98.6124 17.933 98.6124 17.933Z" fill="black"/>
<path d="M31.3874 112.067V98.6209H17.9391L17.9429 108.353C17.9427 110.402 19.581 112.069 21.5923 112.069H27.715C28.3447 112.069 29.2627 112.069 30.0242 112.067C30.7839 112.067 31.3874 112.067 31.3874 112.067Z" fill="black"/>
</g>
</g>
<defs>
<clipPath id="clip0_31_24080">
<rect width="130" height="130" rx="10" fill="white"/>
</clipPath>
<clipPath id="clip1_31_24080">
<rect width="130" height="130" fill="white"/>
</clipPath>
</defs>
</svg>
