<svg width="26" height="16" viewBox="0 0 26 16" fill="none" xmlns="http://www.w3.org/2000/svg">
<rect width="26" height="16" fill="#848895"/>
<path d="M10.3588 2.4458C9.8505 2.4458 8.31792 3.06753 8.04296 3.19178C7.768 3.31603 7.46281 3.7039 7.11651 4.34405C6.76974 4.9842 6.49148 5.73254 6.03936 6.83332C5.58771 7.93409 5.48235 10.0563 5.49747 10.704C5.51259 11.3517 5.58676 11.8577 6.25054 12.2408C6.91384 12.6235 7.5006 13.0241 8.11808 13.2651C8.73602 13.506 9.15744 13.6794 9.44373 13.4384C9.73003 13.1975 9.91853 12.7756 9.91853 12.7756C9.91853 12.7756 10.1897 12.3991 9.67759 12.1733C9.16547 11.947 8.90941 11.7887 8.93161 11.5553C8.95429 11.3219 8.99161 11.1939 9.11964 11.2241C9.24767 11.2544 9.54956 11.7963 10.7094 12.0448C11.8692 12.2933 12.9998 12.2559 12.9998 12.2559C12.9998 12.2559 14.1308 12.2937 15.2906 12.0448C16.4504 11.7963 16.7519 11.2544 16.8799 11.2241C17.0079 11.1939 17.0452 11.3219 17.0679 11.5548C17.0906 11.7887 16.8345 11.947 16.3224 12.1733C15.8103 12.3991 16.0815 12.7756 16.0815 12.7756C16.0815 12.7756 16.27 13.197 16.5563 13.4384C16.8421 13.6794 17.264 13.506 17.8814 13.2651C18.4989 13.0241 19.0862 12.624 19.7495 12.2408C20.4132 11.8577 20.4874 11.3517 20.5025 10.704C20.5176 10.0567 20.4123 7.93409 19.9602 6.83332C19.5085 5.73254 19.2298 4.9842 18.883 4.34405C18.5372 3.7039 18.2315 3.31603 17.957 3.19131C17.6821 3.06753 16.149 2.4458 15.6407 2.4458C15.1323 2.4458 14.9821 2.80013 14.9821 2.80013L14.8049 3.19178C14.8049 3.19178 13.6144 2.96548 13.0078 2.96501C12.4012 2.96501 11.1951 3.19178 11.1951 3.19178L11.0179 2.79966C11.0179 2.79966 10.8677 2.4458 10.3588 2.4458ZM10.4141 7.1456H10.433C11.1743 7.1456 11.7747 7.79425 11.7747 8.59409C11.7747 9.39439 11.1743 10.0426 10.433 10.0426C9.69176 10.0426 9.0913 9.39439 9.0913 8.59409C9.09082 7.80181 9.68042 7.15646 10.4141 7.1456ZM15.567 7.1456H15.5859C16.3196 7.15646 16.9087 7.80228 16.9087 8.59409C16.9087 9.39439 16.3082 10.0426 15.567 10.0426C14.8253 10.0426 14.2253 9.39439 14.2253 8.59409C14.2253 7.79425 14.8253 7.1456 15.567 7.1456Z" fill="black"/>
</svg>
