<svg width="26" height="16" viewBox="0 0 26 16" fill="none" xmlns="http://www.w3.org/2000/svg">
<rect width="26" height="16" fill="#848895"/>
<g clip-path="url(#clip0_1101_153)">
<path fill-rule="evenodd" clip-rule="evenodd" d="M13 0C8.58233 0 5 3.67233 5 8.20233C5 11.8267 7.29233 14.9013 10.471 15.9857C10.871 16.0617 11.0177 15.808 11.0177 15.5913C11.0177 15.3957 11.01 14.7497 11.0067 14.0643C8.781 14.5603 8.31133 13.0963 8.31133 13.0963C7.94733 12.1483 7.423 11.8963 7.423 11.8963C6.69733 11.387 7.478 11.3977 7.478 11.3977C8.28133 11.4553 8.70433 12.2427 8.70433 12.2427C9.41767 13.4967 10.5757 13.1343 11.0323 12.9247C11.104 12.3947 11.3113 12.0327 11.54 11.828C9.76333 11.6203 7.89533 10.917 7.89533 7.774C7.89533 6.87867 8.20767 6.14667 8.71967 5.57233C8.63633 5.36567 8.36267 4.53133 8.797 3.40167C8.797 3.40167 9.469 3.18133 10.9977 4.24233C11.6357 4.06067 12.3203 3.96967 13 3.96633C13.68 3.96967 14.365 4.06067 15.0043 4.24233C16.531 3.18133 17.202 3.40167 17.202 3.40167C17.6373 4.53167 17.3633 5.36567 17.2803 5.57233C17.7937 6.14667 18.1037 6.87867 18.1037 7.774C18.1037 10.9247 16.2323 11.6183 14.4507 11.8213C14.7377 12.076 14.9933 12.575 14.9933 13.3403C14.9933 14.4377 14.9843 15.321 14.9843 15.5913C14.9843 15.8097 15.1283 16.0653 15.5337 15.9847C18.7107 14.899 21 11.8253 21 8.20233C21 3.67233 17.4183 0 13 0Z" fill="black"/>
<path fill-rule="evenodd" clip-rule="evenodd" d="M8.03 11.7771C8.01233 11.8181 7.95 11.8301 7.893 11.8021C7.835 11.7754 7.80233 11.7197 7.821 11.6787C7.83833 11.6367 7.901 11.6254 7.959 11.6531C8.017 11.6801 8.05 11.7364 8.03 11.7771ZM8.354 12.1477C8.316 12.1837 8.24133 12.1671 8.19067 12.1097C8.13833 12.0524 8.12867 11.9761 8.16733 11.9394C8.20667 11.9027 8.279 11.9201 8.33133 11.9771C8.38367 12.0351 8.394 12.1111 8.354 12.1477ZM8.66933 12.6201C8.62067 12.6551 8.54033 12.6224 8.49067 12.5494C8.44167 12.4761 8.44167 12.3887 8.492 12.3537C8.54167 12.3187 8.62033 12.3504 8.67067 12.4227C8.71967 12.4967 8.71967 12.5844 8.66933 12.6201ZM9.10167 13.0767C9.05767 13.1261 8.96433 13.1127 8.896 13.0451C8.826 12.9791 8.80667 12.8851 8.85067 12.8354C8.895 12.7857 8.989 12.7997 9.05767 12.8667C9.12733 12.9327 9.14833 13.0274 9.10167 13.0767ZM9.69767 13.3414C9.67833 13.4057 9.58833 13.4347 9.49767 13.4077C9.40767 13.3794 9.34833 13.3044 9.36633 13.2394C9.38533 13.1747 9.47567 13.1441 9.567 13.1734C9.657 13.2014 9.71667 13.2761 9.69767 13.3414ZM10.3527 13.3907C10.3547 13.4584 10.278 13.5141 10.1827 13.5154C10.087 13.5177 10.0097 13.4631 10.0087 13.3964C10.0087 13.3281 10.084 13.2727 10.1793 13.2711C10.2747 13.2691 10.3527 13.3234 10.3527 13.3907ZM10.9617 13.2844C10.973 13.3504 10.907 13.4181 10.8127 13.4361C10.7197 13.4534 10.6337 13.4127 10.622 13.3474C10.6103 13.2797 10.6777 13.2117 10.7703 13.1941C10.865 13.1774 10.9497 13.2177 10.9617 13.2844Z" fill="black"/>
</g>
<defs>
<clipPath id="clip0_1101_153">
<rect width="16" height="16" fill="white" transform="translate(5)"/>
</clipPath>
</defs>
</svg>
