<svg width="40" height="42" viewBox="0 0 40 42" fill="none" xmlns="http://www.w3.org/2000/svg">
<path d="M27.3812 22.204L29.7954 19.1729C29.9669 18.9576 30.252 18.8621 30.5166 18.9379C37.5898 20.9657 39.243 27.1171 39.1751 29.9942C38.8428 39.5324 31.3096 41.9724 27.5846 42.0001H1.45274C0.866434 42.0001 0.539913 41.3224 0.905267 40.8639L3.86104 37.1541C3.99385 36.9874 4.19538 36.8903 4.40851 36.8903H27.5846C29.7448 36.8626 34.0653 35.4446 34.0653 29.9942C33.6146 25.3813 30.4554 23.8454 28.0076 23.5392C27.3911 23.4621 26.9941 22.69 27.3812 22.204Z" fill="url(#paint0_linear_1101_122)"/>
<path d="M17.8645 26.82L30.824 10.6934C31.1921 10.2353 30.866 9.55493 30.2784 9.55493H11.6912C11.6519 9.55493 11.6126 9.55794 11.5741 9.56577C10.9085 9.70092 9.70736 10.3044 9.80417 11.7567C9.89976 13.1904 10.9702 13.8224 11.5587 13.982C11.6074 13.9952 11.6575 14 11.708 14H20.9748C21.5621 14 21.8883 14.6797 21.5209 15.1379L8.5563 31.3072C8.1889 31.7655 8.51511 32.4451 9.10242 32.4451H27.7149C27.7936 32.4451 27.872 32.433 27.9444 32.4022C28.5876 32.1287 29.5877 31.3152 29.6202 30.1603C29.6512 29.0586 28.6176 28.3008 27.9533 28.0078C27.875 27.9733 27.79 27.9585 27.7044 27.9585H18.4101C17.8225 27.9585 17.4964 27.2781 17.8645 26.82Z" fill="url(#paint1_linear_1101_122)"/>
<path d="M35.6049 4.80389L38.5214 1.13564C38.8861 0.676973 38.5595 0 37.9735 0H11.1751C7.67163 0.318496 0.581613 2.96617 0.249268 11.0089C-0.0689245 18.7092 5.70577 22.1749 9.00546 23.0759C9.26489 23.1467 9.53591 23.0466 9.70206 22.8351L12.0434 19.8553C12.4285 19.3651 12.0204 18.5881 11.4032 18.5004C8.24072 18.0514 4.87347 15.4369 5.40061 11.0089C5.89913 6.82136 9.45798 5.30366 11.1751 5.06825H35.0569C35.2703 5.06825 35.4721 4.97092 35.6049 4.80389Z" fill="url(#paint2_linear_1101_122)"/>
<defs>
<linearGradient id="paint0_linear_1101_122" x1="3.308" y1="42.5525" x2="22.0097" y2="10.685" gradientUnits="userSpaceOnUse">
<stop offset="0.08" stop-color="#9945FF"/>
<stop offset="0.3" stop-color="#8752F3"/>
<stop offset="0.5" stop-color="#5497D5"/>
<stop offset="0.6" stop-color="#43B4CA"/>
<stop offset="0.72" stop-color="#28E0B9"/>
<stop offset="0.97" stop-color="#19FB9B"/>
</linearGradient>
<linearGradient id="paint1_linear_1101_122" x1="9.67845" y1="32.9906" x2="30.7937" y2="10.5807" gradientUnits="userSpaceOnUse">
<stop offset="0.08" stop-color="#9945FF"/>
<stop offset="0.3" stop-color="#8752F3"/>
<stop offset="0.5" stop-color="#5497D5"/>
<stop offset="0.6" stop-color="#43B4CA"/>
<stop offset="0.72" stop-color="#28E0B9"/>
<stop offset="0.97" stop-color="#19FB9B"/>
</linearGradient>
<linearGradient id="paint2_linear_1101_122" x1="3.54555" y1="23.7334" x2="22.2448" y2="-8.1385" gradientUnits="userSpaceOnUse">
<stop offset="0.08" stop-color="#9945FF"/>
<stop offset="0.3" stop-color="#8752F3"/>
<stop offset="0.5" stop-color="#5497D5"/>
<stop offset="0.6" stop-color="#43B4CA"/>
<stop offset="0.72" stop-color="#28E0B9"/>
<stop offset="0.97" stop-color="#19FB9B"/>
</linearGradient>
</defs>
</svg>
