<svg width="165" height="80" viewBox="0 0 165 80" fill="none" xmlns="http://www.w3.org/2000/svg">
<path d="M89.5334 63.0742L74.6762 78.9072C74.356 79.2546 73.9669 79.5313 73.5336 79.7195C73.1004 79.9076 72.6327 80.0032 72.1605 79.9999H1.73123C1.39553 79.9982 1.06741 79.8998 0.785994 79.7166C0.50458 79.5334 0.281744 79.273 0.144051 78.9666C0.00893747 78.6609 -0.0323665 78.3218 0.025383 77.9926C0.084372 77.6617 0.236727 77.3547 0.464453 77.1077L15.3038 61.2747C15.6238 60.927 16.0129 60.6501 16.4462 60.4619C16.8795 60.2737 17.3473 60.1784 17.8196 60.182H88.2488C88.5864 60.1728 88.9191 60.2642 89.2046 60.4447C89.4901 60.6252 89.7155 60.8866 89.8523 61.1956C89.989 61.5047 90.0308 61.8474 89.9725 62.1803C89.9141 62.5133 89.7582 62.8213 89.5245 63.0653L89.5334 63.0742ZM74.6733 31.1825C74.3477 30.8419 73.9575 30.5698 73.5255 30.3821C73.0935 30.1945 72.6284 30.0951 72.1575 30.0898H1.73123C1.3952 30.0918 1.06685 30.1906 0.785403 30.3744C0.503956 30.5581 0.281307 30.8191 0.144051 31.1261C0.00911138 31.4319 -0.0321862 31.7708 0.025383 32.1001C0.0847168 32.4327 0.236018 32.7326 0.464453 32.982L15.3038 48.8239C15.6213 49.1654 16.0158 49.4415 16.4431 49.6256C16.8792 49.8157 17.342 49.9077 17.8196 49.9167H88.2488C88.5828 49.9174 88.9097 49.8199 89.1888 49.6362C89.4678 49.4524 89.6867 49.1906 89.8182 48.8833C89.9536 48.5778 89.9954 48.239 89.9384 47.9097C89.8813 47.5804 89.728 47.2754 89.4978 47.0333L74.6644 31.1914L74.6733 31.1825ZM1.72826 19.8096H72.1575C72.6307 19.8071 73.0987 19.7102 73.534 19.5246C73.9702 19.3345 74.3558 19.0673 74.6733 18.7169L89.5364 2.8839C89.7079 2.70049 89.8372 2.48169 89.9151 2.2429C89.993 2.0041 90.0177 1.75111 89.9875 1.50173C89.9572 1.25236 89.8727 1.01264 89.7399 0.799463C89.6072 0.586284 89.4293 0.404818 89.2189 0.267833C88.9334 0.0847724 88.5996 -0.00832523 88.2607 0.00058469H17.8196C17.3509 0.00058469 16.8792 0.101545 16.4431 0.28268C16.0104 0.469465 15.6222 0.74573 15.3038 1.09333L0.464453 16.9263C0.237442 17.1715 0.0863474 17.4773 0.0294787 17.8067C-0.02739 18.1361 0.0124082 18.475 0.144051 18.7822C0.281534 19.0882 0.503911 19.3483 0.784747 19.5314C1.06558 19.7146 1.39306 19.8132 1.72826 19.8156V19.8096Z" fill="url(#paint0_linear_1142_13)"/>
<defs>
<linearGradient id="paint0_linear_1142_13" x1="7.59935" y1="81.9063" x2="80.9438" y2="-1.2864" gradientUnits="userSpaceOnUse">
<stop offset="0.08" stop-color="#9945FF"/>
<stop offset="0.3" stop-color="#8752F3"/>
<stop offset="0.5" stop-color="#5497D5"/>
<stop offset="0.6" stop-color="#43B4CA"/>
<stop offset="0.72" stop-color="#28E0B9"/>
<stop offset="0.97" stop-color="#19FB9B"/>
</linearGradient>
</defs>
</svg>
