<svg width="26" height="16" viewBox="0 0 26 16" fill="none" xmlns="http://www.w3.org/2000/svg">
<rect width="26" height="16" fill="#848895"/>
<path d="M19.9118 4.25164C19.3913 4.48265 18.839 4.63402 18.2735 4.70065C18.8694 4.34442 19.3152 3.78342 19.5276 3.12247C18.9678 3.45491 18.3552 3.68914 17.7163 3.81504C17.4495 3.53028 17.1271 3.30338 16.7689 3.14842C16.4108 2.99345 16.0246 2.91373 15.6344 2.91419C14.0593 2.91419 12.7823 4.19124 12.7823 5.7666C12.7823 5.98984 12.8074 6.20743 12.8562 6.41656C10.4855 6.29746 8.38356 5.16208 6.97668 3.4363C6.72293 3.87162 6.58968 4.36667 6.5906 4.87055C6.5906 5.86002 7.09408 6.73321 7.85947 7.2446C7.40651 7.23023 6.96354 7.10782 6.56746 6.88759L6.56718 6.92371C6.56718 8.30547 7.55044 9.45806 8.85543 9.72053C8.43523 9.83428 7.99465 9.85088 7.56709 9.76907C7.93031 10.9022 8.98356 11.7271 10.2315 11.75C9.22124 12.5431 7.9735 12.9732 6.6891 12.9712C6.45909 12.9712 6.2319 12.9576 6.00866 12.9311C7.31282 13.7693 8.8308 14.2142 10.3811 14.2127C15.6279 14.2127 18.4967 9.86644 18.4967 6.09708C18.4967 5.97347 18.4942 5.85014 18.4888 5.72766C19.0473 5.32442 19.5292 4.82455 19.9118 4.25164Z" fill="black"/>
</svg>
