<svg width="48" height="48" viewBox="0 0 48 48" fill="none" xmlns="http://www.w3.org/2000/svg">
<rect width="48" height="48" rx="10" fill="white"/>
<rect width="48" height="48" rx="10" fill="#111111"/>
<path d="M30.7735 25.0894L32.9577 22.347C33.1129 22.1521 33.3708 22.0657 33.6103 22.1344C40.0098 23.969 41.5055 29.5346 41.4441 32.1376C41.1434 40.7675 34.3277 42.9751 30.9575 43.0001H7.31439C6.78392 43.0001 6.4885 42.387 6.81906 41.9721L9.49332 38.6157C9.61348 38.4649 9.79582 38.377 9.98866 38.377H30.9575C32.912 38.3519 36.821 37.069 36.821 32.1376C36.4132 27.9641 33.5549 26.5745 31.3403 26.2975C30.7824 26.2277 30.4233 25.5291 30.7735 25.0894Z" fill="url(#paint0_linear_1101_129)"/>
<path d="M22.1631 29.2658L33.8884 14.6751C34.2214 14.2606 33.9264 13.645 33.3947 13.645H16.5778C16.5422 13.645 16.5067 13.6477 16.4718 13.6548C15.8696 13.7771 14.7828 14.3231 14.8704 15.6371C14.9569 16.9343 15.9254 17.5061 16.4579 17.6505C16.502 17.6624 16.5473 17.6668 16.5929 17.6668H24.9772C25.5085 17.6668 25.8037 18.2817 25.4713 18.6963L13.7414 33.3257C13.409 33.7403 13.7042 34.3552 14.2355 34.3552H31.0754C31.1466 34.3552 31.2175 34.3442 31.2831 34.3163C31.8649 34.0689 32.7698 33.3329 32.7992 32.2879C32.8273 31.2912 31.8921 30.6056 31.2911 30.3405C31.2203 30.3092 31.1433 30.2959 31.0659 30.2959H22.6568C22.1251 30.2959 21.83 29.6802 22.1631 29.2658Z" fill="url(#paint1_linear_1101_129)"/>
<path d="M38.2139 9.34637L40.8527 6.02749C41.1826 5.6125 40.8871 5 40.3569 5H16.1108C12.941 5.28816 6.52621 7.68368 6.22551 14.9604C5.93763 21.9273 11.1623 25.063 14.1478 25.8782C14.3825 25.9423 14.6277 25.8516 14.778 25.6603L16.8964 22.9643C17.2448 22.5208 16.8755 21.8178 16.3172 21.7385C13.4559 21.3322 10.4093 18.9667 10.8863 14.9604C11.3373 11.1717 14.5572 9.79855 16.1108 9.58556H37.7182C37.9112 9.58556 38.0938 9.4975 38.2139 9.34637Z" fill="url(#paint2_linear_1101_129)"/>
<defs>
<linearGradient id="paint0_linear_1101_129" x1="8.99295" y1="43.4999" x2="25.9136" y2="14.6675" gradientUnits="userSpaceOnUse">
<stop offset="0.08" stop-color="#9945FF"/>
<stop offset="0.3" stop-color="#8752F3"/>
<stop offset="0.5" stop-color="#5497D5"/>
<stop offset="0.6" stop-color="#43B4CA"/>
<stop offset="0.72" stop-color="#28E0B9"/>
<stop offset="0.97" stop-color="#19FB9B"/>
</linearGradient>
<linearGradient id="paint1_linear_1101_129" x1="14.7567" y1="34.8487" x2="33.861" y2="14.5731" gradientUnits="userSpaceOnUse">
<stop offset="0.08" stop-color="#9945FF"/>
<stop offset="0.3" stop-color="#8752F3"/>
<stop offset="0.5" stop-color="#5497D5"/>
<stop offset="0.6" stop-color="#43B4CA"/>
<stop offset="0.72" stop-color="#28E0B9"/>
<stop offset="0.97" stop-color="#19FB9B"/>
</linearGradient>
<linearGradient id="paint2_linear_1101_129" x1="9.20786" y1="26.4731" x2="26.1262" y2="-2.3634" gradientUnits="userSpaceOnUse">
<stop offset="0.08" stop-color="#9945FF"/>
<stop offset="0.3" stop-color="#8752F3"/>
<stop offset="0.5" stop-color="#5497D5"/>
<stop offset="0.6" stop-color="#43B4CA"/>
<stop offset="0.72" stop-color="#28E0B9"/>
<stop offset="0.97" stop-color="#19FB9B"/>
</linearGradient>
</defs>
</svg>
