<svg width="24" height="25" viewBox="0 0 24 25" fill="none" xmlns="http://www.w3.org/2000/svg">
<path d="M17.6569 6.84314C16.1459 5.33213 14.1369 4.5 12 4.5C9.8631 4.5 7.85411 5.33213 6.34314 6.84314C4.83217 8.35414 4 10.3631 4 12.5C4 14.6369 4.83213 16.6459 6.34314 18.1569C7.85414 19.6678 9.8631 20.5 12 20.5C14.1369 20.5 16.1459 19.6679 17.6569 18.1569C19.1678 16.6459 20 14.6369 20 12.5C20 10.3631 19.1679 8.35411 17.6569 6.84314ZM12 19.4378C8.17451 19.4378 5.06224 16.3255 5.06224 12.5C5.06224 8.67451 8.17451 5.56224 12 5.56224C15.8255 5.56224 18.9378 8.67451 18.9378 12.5C18.9378 16.3255 15.8255 19.4378 12 19.4378ZM12.5311 10.8618V16.4663C12.5311 16.7597 12.2933 16.9975 12 16.9975C11.7067 16.9975 11.4689 16.7597 11.4689 16.4663V11.3929H10.7238C10.4305 11.3929 10.1927 11.1551 10.1927 10.8618C10.1927 10.5684 10.4305 10.3306 10.7238 10.3306H12C12.2933 10.3306 12.5311 10.5684 12.5311 10.8618ZM12.5311 8.53369V8.78876C12.5311 9.08211 12.2933 9.31988 12 9.31988C11.7067 9.31988 11.4689 9.08211 11.4689 8.78876V8.53369C11.4689 8.24035 11.7067 8.00257 12 8.00257C12.2933 8.00257 12.5311 8.24035 12.5311 8.53369Z" fill="white"/>
</svg>
