<svg width="422" height="377" viewBox="0 0 422 377" fill="none" xmlns="http://www.w3.org/2000/svg">
<path d="M419.79 297.241L350.126 371.856C348.619 373.476 346.794 374.77 344.765 375.655C342.736 376.54 340.546 376.998 338.332 377H8.09411C6.51908 376.999 4.97844 376.54 3.66087 375.677C2.34334 374.815 1.30608 373.588 0.676076 372.146C0.0460695 370.704 -0.149321 369.11 0.113847 367.559C0.377014 366.008 1.08726 364.567 2.1577 363.412L71.7434 288.798C73.2503 287.177 75.0749 285.884 77.1043 284.999C79.1333 284.114 81.3235 283.656 83.5376 283.654H413.775C415.363 283.621 416.928 284.059 418.269 284.911C419.609 285.764 420.671 286.994 421.312 288.447C421.956 289.899 422.153 291.509 421.882 293.074C421.61 294.639 420.883 296.089 419.79 297.241ZM350.126 146.952C348.613 145.339 346.787 144.051 344.759 143.166C342.732 142.282 340.544 141.82 338.332 141.808H8.09411C6.51908 141.809 4.97844 142.269 3.66087 143.131C2.34334 143.993 1.30608 145.22 0.676076 146.662C0.0460695 148.104 -0.149321 149.698 0.113847 151.249C0.377014 152.801 1.08726 154.242 2.1577 155.396L71.7434 230.05C73.2559 231.663 75.082 232.951 77.1098 233.836C79.1376 234.72 81.325 235.182 83.5376 235.194H413.775C415.348 235.185 416.881 234.72 418.194 233.855C419.507 232.99 420.537 231.763 421.162 230.322C421.787 228.882 421.98 227.29 421.712 225.743C421.449 224.195 420.741 222.758 419.672 221.606L350.126 146.952ZM8.09411 93.3479H338.332C340.546 93.346 342.736 92.8877 344.765 92.0025C346.794 91.1177 348.619 89.8242 350.126 88.2035L419.79 13.5894C420.883 12.4369 421.61 10.9869 421.882 9.42205C422.153 7.85715 421.956 6.24717 421.312 4.79471C420.671 3.34225 419.609 2.1122 418.269 1.25934C416.928 0.406488 415.363 -0.0310746 413.775 0.00171692H83.5376C81.3235 0.00404505 79.1333 0.46204 77.1043 1.34715C75.0749 2.23225 73.2503 3.52547 71.7434 5.14618L2.1577 79.7603C1.08726 80.9144 0.377014 82.3557 0.113847 83.9069C-0.149321 85.4581 0.0460695 87.052 0.676076 88.4941C1.30608 89.9361 2.34334 91.1633 3.66087 92.0253C4.97844 92.8877 6.51908 93.3471 8.09411 93.3479Z" fill="url(#paint0_linear_1101_162)"/>
<defs>
<linearGradient id="paint0_linear_1101_162" x1="6.01355e-06" y1="188.5" x2="350.619" y2="27.4513" gradientUnits="userSpaceOnUse">
<stop offset="0.08" stop-color="#9945FF"/>
<stop offset="0.3" stop-color="#8752F3"/>
<stop offset="0.5" stop-color="#5497D5"/>
<stop offset="0.6" stop-color="#43B4CA"/>
<stop offset="0.72" stop-color="#28E0B9"/>
<stop offset="1" stop-color="#19FB9B"/>
</linearGradient>
</defs>
</svg>
